<svg width="1514" height="1476" viewBox="0 0 1514 1476" fill="none" xmlns="http://www.w3.org/2000/svg">
<path d="M1175.73 995.402V984.021C1175.73 925.42 1249.93 922.873 1249.93 881.156C1249.93 863.049 1235.18 851.227 1213.24 851.227C1189.22 851.227 1174.04 864.306 1174.04 882.854V887.508C1174.04 892.128 1171.52 894.302 1166.87 894.302L1121.79 892.604C1117.57 892.604 1114.62 890.498 1114.62 887.576V882.922C1114.62 831.965 1155.08 796.94 1214.53 796.94C1272.69 796.94 1310.19 829.825 1310.19 879.117C1310.19 949.098 1234.74 949.54 1234.74 987.826V995.402C1234.86 996.37 1234.75 997.353 1234.43 998.275C1234.11 999.196 1233.59 1000.03 1232.9 1000.72C1232.21 1001.41 1231.37 1001.94 1230.45 1002.26C1229.53 1002.58 1228.54 1002.68 1227.57 1002.57H1182.9C1181.93 1002.68 1180.95 1002.58 1180.03 1002.26C1179.11 1001.94 1178.27 1001.41 1177.58 1000.72C1176.89 1000.03 1176.37 999.196 1176.05 998.275C1175.73 997.353 1175.62 996.37 1175.73 995.402ZM1171.93 1063.34C1171.93 1044.8 1188.37 1029.61 1208.18 1029.61C1227.17 1029.61 1244.02 1044.8 1244.02 1063.34C1244.02 1081.89 1227.03 1097.08 1207.77 1097.08C1188.51 1097.08 1171.93 1081.83 1171.93 1063.28V1063.34Z" fill="black"/>
<path d="M285.002 512.667V502.781C285.002 451.824 349.548 449.684 349.548 413.436C349.548 397.673 336.74 387.448 317.716 387.448C296.824 387.448 283.745 398.794 283.745 414.897V418.939C283.745 422.948 281.571 424.783 277.528 424.783L238.359 423.322C234.69 423.322 232.142 421.487 232.142 418.939V414.897C232.142 370.734 267.269 340.16 318.905 340.16C369.421 340.16 402.033 368.73 402.033 411.5C402.033 472.275 336.469 472.648 336.469 505.974V512.565C336.566 513.405 336.473 514.256 336.195 515.055C335.917 515.854 335.463 516.58 334.864 517.178C334.266 517.776 333.541 518.231 332.742 518.508C331.943 518.786 331.092 518.88 330.252 518.782H291.219C290.388 518.877 289.546 518.785 288.756 518.513C287.965 518.241 287.246 517.795 286.65 517.209C286.054 516.623 285.596 515.91 285.311 515.125C285.026 514.339 284.92 513.499 285.002 512.667ZM281.605 571.607C281.605 555.505 295.873 542.324 313.062 542.324C329.538 542.324 344.214 555.505 344.214 571.607C344.214 587.71 329.538 600.891 312.722 600.891C304.734 601.092 296.99 598.127 291.18 592.641C285.369 587.155 281.964 579.594 281.706 571.607H281.605Z" fill="#EEE8AA"/>
<path d="M1104.94 122.844V117.85C1104.94 92.1338 1137.48 91.0128 1137.48 72.7021C1137.48 64.7528 1130.99 59.5552 1121.38 59.5552C1110.85 59.5552 1104.19 65.2964 1104.19 73.4495V75.4878C1104.19 77.5261 1103.07 78.4433 1101.03 78.4433L1081.26 77.696C1079.39 77.696 1078.1 76.7787 1078.1 75.4878V73.4495C1078.1 51.0623 1095.87 35.7072 1121.96 35.7072C1147.47 35.7072 1163.95 50.1451 1163.95 71.7849C1163.95 102.359 1130.82 102.665 1130.82 119.345V122.742C1130.87 123.168 1130.83 123.599 1130.68 124.003C1130.54 124.407 1130.31 124.774 1130.01 125.075C1129.7 125.377 1129.33 125.604 1128.93 125.742C1128.52 125.879 1128.09 125.922 1127.66 125.867H1108.06C1107.65 125.92 1107.23 125.879 1106.83 125.747C1106.44 125.616 1106.07 125.396 1105.77 125.106C1105.47 124.816 1105.24 124.462 1105.1 124.07C1104.95 123.679 1104.9 123.26 1104.94 122.844ZM1103.27 152.637C1103.05 149.46 1103.8 146.292 1105.4 143.543C1107.01 140.794 1109.41 138.593 1112.28 137.225C1115.16 135.856 1118.38 135.385 1121.52 135.872C1124.67 136.358 1127.6 137.78 1129.93 139.953C1132.25 142.125 1133.87 144.948 1134.57 148.054C1135.28 151.159 1135.03 154.404 1133.86 157.367C1132.69 160.329 1130.66 162.871 1128.03 164.663C1125.4 166.455 1122.29 167.414 1119.1 167.415C1117.09 167.487 1115.09 167.162 1113.2 166.458C1111.32 165.754 1109.59 164.685 1108.12 163.312C1106.65 161.939 1105.46 160.29 1104.63 158.458C1103.8 156.626 1103.34 154.648 1103.27 152.637Z" fill="#EEE8AA"/>
<path d="M150.916 809.883V803.599C150.916 771.19 191.954 769.797 191.954 746.696C191.954 736.675 183.801 730.152 171.571 730.152C158.288 730.152 149.897 737.388 149.897 747.647V750.195C149.897 752.777 148.504 753.932 145.922 753.932L120.987 753.015C118.643 753.015 117.013 751.826 117.013 750.195V747.647C117.013 719.451 139.4 700.087 172.284 700.087C204.455 700.087 225.178 718.262 225.178 745.541C225.178 784.235 183.461 784.473 183.461 805.705V809.883C183.527 810.421 183.469 810.967 183.293 811.479C183.117 811.991 182.826 812.457 182.443 812.84C182.06 813.223 181.594 813.514 181.082 813.69C180.57 813.866 180.024 813.924 179.486 813.858H154.823C154.291 813.913 153.753 813.847 153.249 813.666C152.745 813.484 152.289 813.192 151.914 812.81C151.539 812.428 151.254 811.967 151.081 811.46C150.909 810.954 150.852 810.415 150.916 809.883ZM148.81 847.422C148.544 843.419 149.489 839.43 151.522 835.972C153.555 832.515 156.582 829.749 160.209 828.036C163.836 826.322 167.895 825.741 171.857 826.366C175.819 826.992 179.501 828.796 182.423 831.543C185.346 834.29 187.373 837.854 188.242 841.77C189.111 845.686 188.781 849.772 187.295 853.498C185.809 857.224 183.235 860.416 179.91 862.658C176.584 864.901 172.66 866.091 168.649 866.072C163.537 866.237 158.568 864.365 154.835 860.868C151.102 857.371 148.911 852.534 148.742 847.422H148.81Z" fill="black" stroke="black" stroke-miterlimit="10"/>
<path d="M463.454 223.467V219.153C463.454 196.868 491.684 195.883 491.684 180.018C491.684 173.224 486.079 168.637 477.722 168.637C468.584 168.637 462.808 173.597 462.808 180.663V182.43C462.808 184.196 461.857 184.978 460.091 184.978L443.105 184.332C441.508 184.332 440.387 183.551 440.387 182.43V180.663C440.387 161.266 455.776 147.949 478.367 147.949C500.958 147.949 514.411 160.45 514.411 179.203C514.411 205.836 485.705 206.006 485.705 220.58V223.467C485.749 223.835 485.709 224.207 485.588 224.557C485.466 224.907 485.268 225.224 485.006 225.486C484.744 225.748 484.427 225.946 484.077 226.068C483.728 226.189 483.355 226.229 482.988 226.185H466.002C465.648 226.202 465.295 226.142 464.966 226.009C464.638 225.876 464.342 225.673 464.1 225.415C463.858 225.156 463.674 224.848 463.563 224.512C463.451 224.176 463.414 223.819 463.454 223.467ZM462.027 249.286C461.878 246.571 462.546 243.874 463.945 241.544C465.344 239.213 467.411 237.356 469.877 236.212C472.343 235.068 475.096 234.69 477.779 235.126C480.462 235.563 482.952 236.795 484.928 238.662C486.904 240.529 488.275 242.946 488.862 245.6C489.45 248.255 489.228 251.024 488.225 253.551C487.223 256.078 485.485 258.246 483.237 259.775C480.989 261.303 478.334 262.123 475.616 262.127C472.107 262.246 468.695 260.968 466.128 258.573C463.561 256.178 462.049 252.862 461.925 249.354L462.027 249.286Z" fill="black"/>
<path d="M966.232 1154.8V1150.48C966.232 1128.2 994.462 1127.24 994.462 1111.35C994.462 1104.55 988.857 1099.97 980.5 1099.97C971.362 1099.97 965.586 1104.93 965.586 1111.99V1113.76C965.586 1115.52 964.635 1116.34 962.869 1116.34L945.883 1115.69C944.286 1115.69 943.165 1114.88 943.165 1113.76V1111.99C943.165 1092.59 958.554 1079.28 981.145 1079.28C1003.74 1079.28 1017.56 1091.78 1017.56 1110.56C1017.56 1137.16 988.857 1137.33 988.857 1151.91V1154.8C988.9 1155.16 988.859 1155.54 988.738 1155.89C988.617 1156.24 988.419 1156.56 988.158 1156.82C987.897 1157.09 987.58 1157.29 987.231 1157.41C986.881 1157.54 986.508 1157.59 986.139 1157.55H969.153C968.769 1157.62 968.372 1157.6 967.997 1157.49C967.621 1157.38 967.276 1157.18 966.991 1156.92C966.706 1156.65 966.489 1156.32 966.357 1155.95C966.225 1155.58 966.182 1155.18 966.232 1154.8ZM964.805 1180.61C964.656 1177.9 965.324 1175.2 966.723 1172.87C968.122 1170.54 970.189 1168.68 972.655 1167.54C975.121 1166.4 977.874 1166.02 980.557 1166.45C983.24 1166.89 985.73 1168.12 987.706 1169.99C989.682 1171.86 991.053 1174.27 991.64 1176.93C992.228 1179.58 992.006 1182.35 991.003 1184.88C990.001 1187.41 988.263 1189.57 986.015 1191.1C983.767 1192.63 981.112 1193.45 978.394 1193.46C974.897 1193.54 971.509 1192.23 968.97 1189.83C966.431 1187.42 964.946 1184.11 964.839 1180.61H964.805Z" fill="black" stroke="black" stroke-miterlimit="10"/>
<path d="M833.234 1232.11C832.996 1231.4 832.758 1230.69 832.486 1229.97C832.214 1229.26 832.011 1228.51 831.739 1227.8C831.467 1227.09 831.263 1226.37 830.991 1225.66C830.72 1224.95 830.516 1224.2 830.244 1223.49C829.972 1222.77 829.768 1222.06 829.497 1221.35C829.225 1220.63 829.021 1219.89 828.749 1219.17L828.002 1217.03C827.764 1216.28 827.492 1215.57 827.255 1214.86L826.507 1212.72C826.269 1211.97 825.998 1211.26 825.76 1210.54L825.012 1208.4C824.775 1207.66 824.503 1206.94 824.265 1206.23L823.552 1203.95C823.314 1203.21 823.042 1202.49 822.804 1201.78L822.023 1199.64C821.785 1198.89 821.547 1198.18 821.275 1197.46C821.004 1196.75 820.8 1196.04 820.528 1195.32C820.256 1194.61 820.053 1193.86 819.781 1193.15C819.509 1192.44 819.305 1191.72 819.033 1191.01C807.959 1157.31 773.715 1132.58 736.041 1132.58C699.522 1132.58 667.758 1153.84 654.51 1183.81C654.17 1184.49 653.864 1185.2 653.558 1185.88L652.641 1187.99C652.301 1188.67 651.996 1189.34 651.69 1190.06C651.384 1190.77 651.044 1191.45 650.739 1192.13L649.821 1194.2C649.482 1194.92 649.176 1195.6 648.87 1196.31C648.565 1197.02 648.225 1197.67 647.919 1198.38C647.613 1199.09 647.274 1199.74 646.968 1200.45L646.051 1202.53C645.711 1203.21 645.405 1203.92 645.099 1204.6C644.794 1205.28 644.454 1205.99 644.148 1206.67L643.231 1208.78C642.891 1209.46 642.586 1210.14 642.28 1210.85C641.974 1211.56 641.634 1212.24 641.329 1212.92L640.411 1214.99C640.072 1215.71 639.766 1216.39 639.46 1217.1C639.154 1217.81 638.815 1218.46 638.509 1219.17L637.592 1221.24C637.252 1221.92 636.946 1222.64 636.64 1223.32C636.335 1224 635.995 1224.71 635.689 1225.42C629.861 1237.83 626.867 1251.39 626.925 1265.1C626.925 1319.8 674.145 1364.5 732.542 1364.5C789.682 1364.5 839.382 1319.8 839.382 1265.1C839.372 1254.67 837.544 1244.33 833.981 1234.53C833.743 1233.54 833.505 1232.83 833.234 1232.11Z" fill="black"/>
<path d="M752.415 479.681C577.224 479.681 457.951 582.784 457.951 733.142V746.73C457.982 748.976 458.593 751.175 459.724 753.115C460.855 755.055 462.467 756.671 464.405 757.805C465.138 758.51 465.934 759.147 466.783 759.708C467.519 760.423 468.328 761.061 469.195 761.61C469.931 762.326 470.74 762.963 471.607 763.512C472.337 764.236 473.146 764.874 474.019 765.415C474.743 766.13 475.54 766.768 476.397 767.317C477.132 768.044 477.941 768.693 478.809 769.253C479.554 769.959 480.361 770.596 481.221 771.156C481.959 771.869 482.767 772.507 483.633 773.058C484.359 773.772 485.156 774.409 486.011 774.961C486.809 775.73 487.686 776.413 488.627 776.999C489.319 777.63 490.057 778.209 490.835 778.731C491.58 779.437 492.387 780.074 493.247 780.634C493.98 781.339 494.776 781.976 495.625 782.536C496.37 783.242 497.177 783.879 498.037 784.439C498.775 785.152 499.583 785.79 500.449 786.341C501.175 787.054 501.972 787.692 502.827 788.244C503.565 788.957 504.373 789.594 505.239 790.146C505.965 790.859 506.762 791.497 507.617 792.048C508.362 792.754 509.169 793.391 510.029 793.951C510.755 794.664 511.552 795.301 512.407 795.853C516.332 799.307 521.454 801.087 526.675 800.813L635.927 804.89C647.172 804.89 653.287 799.794 653.287 788.549V777.339C653.287 732.394 690.044 700.767 748.407 700.767C801.504 700.767 837.242 729.337 837.242 773.262C837.243 778.267 836.765 783.261 835.815 788.176C780.985 860.059 638.271 891.755 638.271 1031.28V1064.84C638.271 1078.43 645.711 1085.94 659.401 1085.94H790.939C804.528 1085.94 812.069 1078.5 812.069 1064.84V1042.45C812.069 929.395 1034.48 928.138 1034.48 721.897C1034.48 576.567 923.87 479.681 752.415 479.681Z" fill="black"/>
<path d="M638.101 1064.91V1031.34C638.101 858.632 856.776 851.295 856.776 728.182C856.776 674.745 813.292 639.856 748.679 639.856C677.848 639.856 633.175 678.38 633.175 733.04V746.628C633.175 760.217 625.702 766.536 612.045 766.536L479.081 761.542C466.681 761.542 457.984 755.325 457.984 746.628V733.04C457.984 582.682 577.258 479.579 752.449 479.579C923.903 479.579 1034.41 576.465 1034.41 721.863C1034.41 928.104 812.001 929.361 812.001 1042.42V1064.81C812.001 1078.39 804.528 1085.9 790.871 1085.9H659.232C645.541 1086 638.101 1078.56 638.101 1064.91ZM626.925 1265.1C626.925 1210.44 675.368 1165.7 733.765 1165.7C789.682 1165.7 839.382 1210.44 839.382 1265.1C839.382 1319.76 789.58 1364.33 732.542 1364.33C674.077 1364.33 626.925 1319.63 626.925 1265.1Z" fill="#EEE8AA" stroke="#EEE8AA" stroke-miterlimit="10"/>
<path d="M727.107 1475.72C829.566 1475.72 912.625 1457.15 912.625 1434.25C912.625 1411.34 829.566 1392.77 727.107 1392.77C624.648 1392.77 541.588 1411.34 541.588 1434.25C541.588 1457.15 624.648 1475.72 727.107 1475.72Z" fill="black"/>
</svg>
