<svg width="600" height="600" viewBox="0 0 600 600" fill="none" xmlns="http://www.w3.org/2000/svg">
<circle cx="300" cy="300" r="300" fill="white"/>
<circle cx="300" cy="300" r="275" fill="#002D96"/>
<path d="M107.739 397V218.533H156.201V397H107.739ZM347.852 397H299.39V324.246H243.359V397H194.897V218.533H243.359V284.695H299.39V218.533H347.852V397ZM503.247 342.801C503.247 352.485 500.806 361.681 495.923 370.389C491.04 379.015 483.431 386.014 473.096 391.385C462.842 396.756 449.577 399.441 433.301 399.441C425.163 399.441 418.001 399.075 411.816 398.343C405.713 397.61 400.016 396.43 394.727 394.803C389.437 393.094 383.944 390.896 378.247 388.211V345.242C387.931 350.125 397.697 353.868 407.544 356.473C417.391 358.995 426.302 360.257 434.277 360.257C439.079 360.257 442.985 359.687 445.996 358.548C449.089 357.409 451.367 355.862 452.832 353.909C454.297 351.875 455.029 349.555 455.029 346.951C455.029 343.859 453.931 341.255 451.733 339.139C449.618 336.941 446.2 334.663 441.479 332.303C436.759 329.943 430.534 327.013 422.803 323.514C416.211 320.421 410.229 317.247 404.858 313.992C399.569 310.737 395.011 307.034 391.187 302.884C387.443 298.652 384.554 293.729 382.52 288.113C380.485 282.498 379.468 275.866 379.468 268.216C379.468 256.741 382.275 247.138 387.891 239.407C393.587 231.595 401.481 225.735 411.572 221.829C421.745 217.923 433.464 215.97 446.729 215.97C458.366 215.97 468.823 217.272 478.101 219.876C487.459 222.48 495.841 225.451 503.247 228.787L488.477 266.019C480.827 262.519 473.299 259.752 465.894 257.718C458.488 255.602 451.611 254.544 445.264 254.544C441.113 254.544 437.695 255.073 435.01 256.131C432.406 257.107 430.452 258.45 429.15 260.159C427.93 261.868 427.319 263.821 427.319 266.019C427.319 268.785 428.377 271.268 430.493 273.465C432.69 275.662 436.312 278.063 441.357 280.667C446.484 283.19 453.442 286.486 462.231 290.555C470.939 294.461 478.345 298.693 484.448 303.25C490.552 307.726 495.19 313.138 498.364 319.485C501.619 325.752 503.247 333.523 503.247 342.801Z" fill="white"/>
</svg>
